HIERARCHY
ROOT pelvis
{
  OFFSET 0 100 0
  CHANNELS 6 Xposition Yposition Zposition Zrotation Xrotation Yrotation
  JOINT pelvis_right_femur
  {
    OFFSET -10.78128 -3.44521 -0.5502486
    CHANNELS 3 Zrotation Xrotation Yrotation
    JOINT right_femur_tibia
    {
      OFFSET -0.8047443 -44.0398 -0.1307829
      CHANNELS 3 Zrotation Xrotation Yrotation
      JOINT right_tibia_foot
      {
        OFFSET 3.006224 -47.83518 -5
        CHANNELS 3 Zrotation Xrotation Yrotation
        End Site
        {
          OFFSET 0 -5 15
        }
      }
    }
  }
  JOINT pelvis_left_femur
  {
    OFFSET 10.78128 -3.44521 -0.5502486
    CHANNELS 3 Zrotation Xrotation Yrotation
    JOINT left_femur_tibia
    {
      OFFSET 0.8047443 -44.0398 -0.1307829
      CHANNELS 3 Zrotation Xrotation Yrotation
      JOINT left_tibia_foot
      {
        OFFSET -4.370144 -48.10324 -4.275266
        CHANNELS 3 Zrotation Xrotation Yrotation
        End Site
        {
          OFFSET 0 -5 15
        }
      }
    }
  }
  JOINT pelvis_spine1
  {
    OFFSET 0 6.468898 -3.129235
    CHANNELS 3 Zrotation Xrotation Yrotation
    JOINT spine1
    {
      OFFSET 0 23.15396 4.99043
      CHANNELS 3 Zrotation Xrotation Yrotation
      JOINT spine2
      {
        OFFSET 0 20.79997 -5.064912
        CHANNELS 3 Zrotation Xrotation Yrotation
        JOINT neck
        {
          OFFSET 0 14.38658 9.616178
          CHANNELS 3 Zrotation Xrotation Yrotation
          End Site
          {
            OFFSET 0 20 0
          }
        }
      }
      JOINT right_manubrium
      {
        OFFSET -5.722621 16.35077 3.967754
        CHANNELS 3 Zrotation Xrotation Yrotation
        JOINT right_clavicle
        {
          OFFSET -13.16364 1.694482 -4.693211
          CHANNELS 3 Zrotation Xrotation Yrotation
          JOINT right_humerus
          {
            OFFSET -28.5034 -0.3100689 -2.792744
            CHANNELS 3 Zrotation Xrotation Yrotation
            JOINT right_radius
            {
              OFFSET -25.15693 0.02248979 -1.271978
              CHANNELS 3 Zrotation Xrotation Yrotation
              End Site
              {
                OFFSET -15 0 0
              }
            }
          }
        }
      }
      JOINT left_manubrium
      {
        OFFSET 5.722621 16.35077 3.967754
        CHANNELS 3 Zrotation Xrotation Yrotation
        JOINT left_clavicle
        {
          OFFSET 13.16364 1.694482 -4.693211
          CHANNELS 3 Zrotation Xrotation Yrotation
          JOINT left_humerus
          {
            OFFSET 29.39168 -1.063119 -2.237045
            CHANNELS 3 Zrotation Xrotation Yrotation
            JOINT left_radius
            {
              OFFSET 24.59957 -0.9528479 0.9047498
              CHANNELS 3 Zrotation Xrotation Yrotation
              End Site
              {
                OFFSET 15 -0 -0
              }
            }
          }
        }
      }
    }
  }
}
MOTION
Frames: 23
Frame Time: 0.0416666666667
0 103.5113 0 1.378164 -1.472227 -0.3789772 2.750291 -13.84794 9.974146 -0 39.71237 -0 -5.993815 -15.78369 -2.950625 -7.525561 9.632303 -23.09676 -0 6.748548 -0 13.95113 -12.57687 30.13156 -4.413239 -4.526829 5.096661 2.598848 11.01956 -7.772784 1.149559 21.84661 6.824155 3.382636 -24.17945 9.093513 7.303713 -20.21641 12.25641 85.19616 37.55927 -18.20547 -0 0 16.21306 -8.648079 8.311011 4.940178 5.863795 -20.03587 -1.791001 -92.2787 20.50971 20.30955 0 0 -12.84761 14.14431 15.24843 -3.095223
0.3447412 103.8563 1.427836 1.225993 -1.132242 -0.7062276 2.829127 -15.33842 9.373464 -0 39.06791 -0 -6.561137 -14.89805 -2.742921 -7.397733 9.554172 -22.62062 -0 5.927634 -0 13.75709 -13.19945 29.32758 -4.367735 -4.20808 4.914597 2.639499 10.96065 -7.895257 1.030753 21.73381 6.965959 3.507856 -24.34139 9.020424 7.31349 -20.11918 12.25953 85.29036 37.85701 -18.31995 -0 0 15.89759 -8.922222 8.42639 5.168115 6.001616 -20.3515 -1.841032 -91.93847 20.32368 19.95765 0 0 -13.32842 14.35794 15.15684 -3.295891
0.6804051 104.056 2.991384 0.788242 -0.4077064 -0.977227 3.98825 -17.95965 9.73182 -0 36.21933 -0 -5.740555 -15.17436 -2.657318 -7.053332 9.558644 -22.37019 -0 6.29472 -0 12.38856 -15.19892 28.66522 -3.969195 -3.928445 5.102938 2.788013 10.53447 -7.810103 1.392672 21.37652 6.733138 3.361513 -24.98026 9.34099 6.96108 -20.20163 12.11937 84.94124 36.38089 -18.18365 -0 0 16.80855 -8.011192 8.309986 4.491447 6.293177 -20.22592 -1.409125 -92.80105 21.22386 20.80853 0 0 -13.67307 13.62803 15.62058 -2.320359
1.003163 104.1152 4.764213 0.3876192 0.417289 -1.121274 4.914754 -20.88946 9.578145 -0 33.37803 -0 -5.553344 -14.51992 -2.458908 -6.719712 9.689396 -21.83408 -0 6.478165 -0 10.91168 -17.22476 27.42666 -3.657135 -3.520243 5.102656 2.921635 10.0988 -7.822444 1.597831 21.04424 6.656187 3.375374 -25.54235 9.509853 6.686251 -20.07768 11.95449 84.80663 35.50205 -18.27873 -0 0 17.12245 -7.505079 8.282275 4.108241 6.615289 -20.32729 -1.084777 -93.23816 21.99266 21.1722 0 0 -14.34684 12.93445 15.96981 -1.40319
1.306368 104.0177 6.854834 -0.01685465 1.360794 -1.105267 5.731372 -24.2709 9.037898 -0 30.01095 -0 -5.755485 -13.12342 -2.152653 -6.356127 9.984223 -20.96819 -0 6.677641 -0 9.285944 -19.3106 25.68671 -3.369956 -3.030817 4.986304 3.054703 9.658816 -7.904096 1.726479 20.68107 6.658255 3.490078 -26.06688 9.583989 6.404141 -19.77872 11.7569 84.83382 34.87467 -18.55333 -0 0 16.99025 -7.316641 8.344623 3.891354 7.037118 -20.64329 -0.8009995 -93.26643 22.4392 21.02337 0 0 -15.31995 12.52729 16.17907 -0.8580237
1.576666 103.7457 9.374225 -0.4094346 2.315598 -0.9126635 6.367282 -27.82685 8.150155 -0 26.23491 -0 -6.243566 -11.20563 -1.826452 -5.970759 10.58216 -19.84251 -0 7.025239 -0 7.391816 -21.33765 23.48061 -3.106883 -2.499219 4.738192 3.177426 9.18126 -8.03962 1.792931 20.34365 6.713072 3.664707 -26.46197 9.563322 6.082114 -19.26273 11.50175 85.05318 34.42025 -19.02593 -0 0 16.38406 -7.405273 8.469859 3.818776 7.50949 -21.09122 -0.5734232 -92.89004 22.75222 20.32448 0 0 -16.58362 12.18195 16.28317 -0.4426827
1.798587 103.2897 12.44619 -0.7863316 3.202442 -0.5491227 6.778964 -31.30579 6.947615 -0 22.1258 -0 -6.924847 -8.937755 -1.529595 -5.574284 11.56092 -18.48943 -0 7.737137 -0 5.200434 -23.11939 20.85597 -2.854948 -1.973445 4.363015 3.284462 8.665837 -8.21645 1.812177 20.05808 6.791634 3.863256 -26.67145 9.448416 5.696425 -18.50598 11.18223 85.48694 34.05543 -19.69964 -0 0 15.29181 -7.749686 8.642447 3.866017 7.999099 -21.61744 -0.4090388 -92.09864 22.92845 19.03141 0 0 -18.08423 11.8745 16.2663 -0.1491338
1.957202 102.6623 16.18904 -1.139372 3.914509 -0.04611937 6.930259 -34.32592 5.498649 -0 17.97593 -0 -7.703908 -6.584607 -1.338957 -5.184804 12.95194 -16.98041 -0 9.063281 -0 2.745343 -24.37384 17.91892 -2.598478 -1.504492 3.863917 3.369667 8.120784 -8.420443 1.789849 19.86486 6.866031 4.041704 -26.63472 9.237372 5.242576 -17.49902 10.8052 86.1493 33.73012 -20.5559 -0 0 13.72318 -8.304934 8.83603 4.014628 8.432965 -22.13929 -0.3306646 -90.92146 22.99043 17.15813 0 0 -19.70563 11.54158 16.11074 0.08453433
2.041962 101.9193 20.6907 -1.462558 4.337153 0.5363997 6.861569 -36.40854 3.968896 -0 14.28084 -0 -8.468175 -4.525803 -1.347955 -4.816701 14.6712 -15.42824 -0 11.32182 -0 0.1610233 -24.75271 14.87314 -2.309949 -1.143133 3.263247 3.430284 7.570778 -8.630038 1.730125 19.80466 6.903245 4.147451 -26.31989 8.936838 4.737959 -16.27593 10.40013 87.01765 33.40174 -21.52745 -0 0 11.7657 -8.972469 9.010675 4.231558 8.702061 -22.54503 -0.3651389 -89.46729 22.9746 14.84303 0 0 -21.24154 11.11797 15.80469 0.3381995
2.049578 101.1832 25.96784 -1.755361 4.363245 1.11333 6.735565 -37.03358 2.666334 -0 11.75026 -0 -9.106044 -3.242771 -1.651973 -4.46682 16.44586 -13.99863 -0 14.89481 -0 -2.326002 -23.91881 12.0283 -1.95209 -0.9205225 2.615166 3.468319 7.05659 -8.809756 1.639792 19.91415 6.866639 4.12702 -25.74977 8.569438 4.230995 -14.93847 10.02258 88.00478 33.04633 -22.47592 -0 0 9.62895 -9.573239 9.110328 4.458682 8.665264 -22.69388 -0.5325011 -87.96224 22.99673 12.42051 0 0 -22.38202 10.50633 15.36718 0.7580713
1.98466 100.6571 31.92017 -2.022578 3.927118 1.587594 6.796225 -35.7903 1.973373 -0 11.1498 -0 -9.571978 -3.175651 -2.289467 -4.107877 17.76158 -12.88355 -0 20.19395 -0 -4.462916 -21.69196 9.736788 -1.494624 -0.8199725 2.018034 3.489468 6.636596 -8.906791 1.533198 20.2138 6.724008 3.950613 -25.02491 8.173124 3.806726 -13.66515 9.749096 88.94422 32.68693 -23.19343 -0 0 7.647804 -9.865358 9.074183 4.614155 8.192766 -22.45564 -0.8225182 -86.73966 23.26621 10.42634 0 0 -22.75366 9.602668 14.86678 1.533245
1.857574 100.5985 38.3035 -2.256742 3.03349 1.872683 7.187647 -32.574 2.11646 -0 12.92157 -0 -9.96739 -4.440939 -3.166772 -3.71547 17.91327 -12.22003 -0 27.54273 -0 -6.073987 -18.22997 8.27986 -0.9536603 -0.752036 1.610231 3.494384 6.38646 -8.855148 1.435777 20.69816 6.462381 3.649199 -24.30286 7.784226 3.578193 -12.676 9.656123 89.61682 32.42921 -23.45126 -0 0 6.195091 -9.647379 8.866728 4.623694 7.251517 -21.79382 -1.172815 -86.16493 23.98861 9.462474 0 0 -22.04447 8.37617 14.41757 2.786301
1.68058 101.235 44.75898 -2.401732 1.754892 1.917993 7.782053 -27.7129 2.934466 -0 16.65866 -0 -10.53753 -6.551314 -4.036833 -3.327314 16.22292 -11.96852 -0 36.92735 -0 -7.103681 -14.13727 7.7946 -0.4368597 -0.5640831 1.535776 3.462149 6.391488 -8.59099 1.382672 21.33656 6.101726 3.340048 -23.70766 7.409294 3.644947 -12.14476 9.785073 89.82531 32.45431 -23.08488 -0 0 5.504041 -8.945074 8.51944 4.482763 5.997113 -20.85918 -1.479536 -86.49166 25.1254 9.895065 0 0 -20.19582 6.989573 14.14006 4.382465
1.462514 102.6358 50.91555 -2.339239 0.192584 1.724922 8.234687 -21.87469 3.901756 -0 20.8233 -0 -11.50782 -8.502553 -4.582771 -3.045472 12.34903 -11.86041 -0 47.6073 -0 -7.557881 -10.34166 8.294637 -0.1365407 -0.1073729 1.881878 3.338718 6.714319 -8.074783 1.407362 22.08605 5.694592 3.194463 -23.21472 7.014739 4.011954 -12.11433 10.11069 89.46805 32.91518 -22.04026 -0 0 5.534395 -8.153073 8.150256 4.314528 4.781536 -19.98662 -1.658941 -87.66274 26.22028 11.52544 0 0 -17.53526 5.837106 14.10629 5.828902
1.20347 104.6132 56.52124 -1.967126 -1.536728 1.340225 8.235309 -15.73111 4.413286 -0 23.19533 -0 -12.86579 -9.471035 -4.557955 -2.895168 6.438872 -11.5231 -0 57.72455 -0 -7.448443 -7.686423 9.703891 -0.2128265 0.6661462 2.61994 3.054851 7.325744 -7.309746 1.516931 22.89777 5.309014 3.32851 -22.64909 6.560601 4.511244 -12.518 10.53846 88.53353 33.76525 -20.30533 -0 0 6.082482 -7.926579 7.909156 4.371708 4.00701 -19.50591 -1.707987 -89.21361 26.63036 13.58678 0 0 -14.68218 5.34816 14.29331 6.510877
0.9023504 106.7259 61.52153 -1.347671 -3.223558 0.8192262 7.73227 -9.633978 4.103049 -0 22.01128 -0 -14.30892 -9.650321 -3.909533 -2.666682 -1.005698 -10.69175 -0 64.30048 -0 -6.836492 -6.473117 11.80876 -0.6239241 1.651541 3.587262 2.580949 8.039745 -6.354641 1.661189 23.6959 5.013547 3.69276 -21.86982 6.055316 4.821638 -13.31306 10.94246 87.02198 34.6819 -17.79714 -0 0 7.09474 -8.802015 7.850072 4.965984 3.890012 -19.47518 -1.688715 -90.56512 26.07009 15.31217 0 0 -12.22964 5.62447 14.56246 6.20685
0.5864503 108.4066 66.05385 -0.748039 -4.493583 0.1759484 6.951385 -3.622317 2.978552 -0 17.01196 -0 -15.42455 -10.22159 -2.805437 -1.981302 -9.280152 -9.319568 -0 64.15834 -0 -5.884794 -6.338428 14.19474 -1.098002 2.619211 4.528351 1.97799 8.553808 -5.334088 1.726722 24.35288 4.87631 4.089502 -20.96415 5.570488 4.640659 -14.54866 11.21614 84.94326 35.24497 -14.42508 -0 0 8.776982 -10.84603 7.850787 6.334068 4.331176 -19.61962 -1.659848 -91.47947 24.83872 16.56204 0 0 -10.45227 6.29809 14.72141 5.332666
0.327692 109.173 70.3873 -0.4419556 -4.949571 -0.6155833 6.182738 2.291164 1.330603 -0 9.635166 -0 -15.94663 -12.19924 -1.496848 -0.6134589 -17.40701 -7.570257 -0 55.79362 -0 -4.785805 -6.582848 16.35024 -1.35298 3.290395 5.204326 1.379766 8.632043 -4.419759 1.597602 24.72051 4.948391 4.33059 -20.1905 5.18991 3.907997 -16.22563 11.29413 82.46127 35.27058 -10.36989 -0 0 11.25187 -13.64374 7.71694 8.469678 5.022034 -19.57888 -1.633204 -92.05111 23.45133 17.69332 0 0 -9.261527 6.868066 14.64447 4.520376
0.2054705 108.8166 74.83035 -0.4484429 -4.491351 -1.544173 5.526156 7.925107 -0.4242812 -0 2.340432 -0 -15.86824 -15.29688 -0.157459 1.178918 -24.16148 -5.816684 -0 40.90559 -0 -3.639902 -6.658635 17.94315 -1.361616 3.433066 5.529145 0.9010528 8.284942 -3.752606 1.261752 24.71726 5.214277 4.378118 -19.7174 4.948682 2.876578 -18.11382 11.15561 79.95139 34.95104 -6.212642 -0 0 14.18312 -16.59274 7.394453 11.04269 5.673314 -19.19743 -1.572493 -92.38233 22.15686 18.94273 0 0 -8.360427 7.146 14.31295 4.019257
0.258482 107.4686 79.64324 -0.5238078 -3.461889 -2.524606 4.848945 12.99073 -1.850705 0 -2.404682 0 -15.33599 -18.01752 1.117122 2.656327 -28.51868 -4.618487 -0 23.9312 -0 -2.465166 -6.422454 18.98549 -1.357078 2.964753 5.610932 0.5600308 7.760127 -3.359865 0.8509548 24.38747 5.573247 4.333465 -19.48954 4.83531 1.952577 -19.80115 10.84119 77.83067 34.63121 -2.675517 -0 0 16.89186 -19.21788 7.039717 13.52648 6.138694 -18.56554 -1.428815 -92.48909 20.88843 20.2064 0 0 -7.421626 7.278011 13.78589 3.654858
0.4849145 105.5314 85.00523 -0.4030229 -2.436573 -3.44991 3.958901 17.23152 -2.608703 0 -2.960469 0 -14.52426 -18.71183 2.240044 3.065792 -30.14107 -4.459502 -0 9.757679 -0 -1.31225 -6.038904 19.71233 -1.591689 1.999287 5.640878 0.2882143 7.367367 -3.153437 0.55481 23.87666 5.901893 4.328422 -19.35034 4.83576 1.45297 -20.93722 10.45138 76.39339 34.49157 -0.270787 -0 0 18.79829 -21.30189 6.867854 15.45415 6.384261 -17.86065 -1.197278 -92.42916 19.55383 21.30543 0 0 -6.206417 7.447378 13.17966 3.22866
0.8670384 103.5411 91.01817 0.002778054 -1.888209 -4.22574 2.783753 20.46573 -2.584353 -0 1.129652 -0 -13.61477 -16.49561 3.129264 2.178942 -29.38895 -5.389068 -0 1.517747 -0 -0.3084043 -5.739532 20.34507 -2.134052 0.7898437 5.743399 -0.004085791 7.313245 -3.003611 0.4985565 23.35762 6.134185 4.441822 -19.21239 4.952182 1.470134 -21.40398 10.10028 75.78611 34.45605 0.8348754 -0 0 19.6842 -22.84046 6.972234 16.60248 6.418598 -17.21304 -0.9463506 -92.35864 18.23313 22.21516 0 0 -4.631833 7.687677 12.63913 2.769606
1.379167 102.0269 97.69028 0.6007612 -2.015333 -4.761869 1.419383 22.52905 -1.930441 -0 9.293808 -0 -12.78513 -11.47875 3.745594 0.3310498 -26.9514 -7.033047 0 -0.1553525 0 0.4056756 -5.673525 20.94904 -2.862478 -0.3777731 5.915069 -0.372502 7.648251 -2.817997 0.6907601 22.96898 6.281591 4.679533 -19.09489 5.189204 1.894822 -21.29652 9.869423 76.03501 34.31361 0.7514141 -0 0 19.63865 -23.93232 7.288903 17.00688 6.259158 -16.68393 -0.7975173 -92.43575 17.14556 23.02074 0 0 -2.799135 7.911542 12.29104 2.47363
